<?xml version="1.0"?>
<svg version="1.1" xmlns="http://www.w3.org/2000/svg" width="400px" height="65px" style=""><path fill="#126b0d" d="M22.92,52.14c0,0.36-0.16,0.6-0.64,0.8c-2.64,1.08-5.04,1.64-7.96,1.64c-8.44,0-12.56-5.96-12.56-14.2c0-8.2,4.92-14.48,12.96-14.48c2.76,0,5.24,0.56,7.52,1.68c0.48,0.24,0.64,0.44,0.64,0.68c0,0.16-0.04,0.32-0.12,0.52l-0.92,2.52c-0.12,0.36-0.32,0.52-0.56,0.52c-0.12,0-0.28-0.08-0.44-0.16c-2-1.04-3.8-1.44-5.8-1.44c-5.56,0-7.72,5.12-7.72,9.96c0,6.16,2.88,10.08,7.8,10.08c1.92,0,3.88-0.44,5.76-1.28c0.2-0.08,0.36-0.16,0.48-0.16c0.28,0,0.48,0.2,0.64,0.6l0.8,2.16c0.08,0.2,0.12,0.4,0.12,0.56z M49.26,26.9c0,0.12-0.04,0.32-0.16,0.52l-8.24,15.24l0,10.52c0,0.6-0.32,0.92-0.92,0.92l-3.36,0c-0.6,0-0.92-0.32-0.92-1l0-10.24l-8.68-15.48c-0.08-0.16-0.12-0.28-0.12-0.4c0-0.32,0.28-0.56,0.72-0.56l3.64,0c0.72,0,1.2,0.24,1.48,0.76l5.76,11.32l0.08,0l5.68-11.24c0.32-0.64,0.64-0.84,1.4-0.84l2.88,0c0.48,0,0.76,0.16,0.76,0.48z M74.56,46.02c0,6.48-5.24,8.08-10.92,8.08l-7.44,0c-0.84,0-1.04-0.32-1.04-1.16l0-25.48c0-0.84,0.36-1.04,1.2-1.04l6,0c6.44,0,10.04,1.96,10.04,6.76c0,2.8-1.6,5.24-4.52,5.88l0,0.04c3.8,0.28,6.68,2.88,6.68,6.92z M67.36,33.78c0-2.6-2.04-3.44-4.84-3.44l-2.24,0l0,7.44l2.08,0c2.92,0,5-0.76,5-4z M69.32,45.86c0-1.88-0.84-3.08-2.12-3.72c-1.24-0.6-2.6-0.72-4.28-0.72l-2.64,0l0,8.72l2.96,0c1.4,0,2.76-0.12,3.76-0.52c1.4-0.6,2.32-1.84,2.32-3.76z M98.38,53.14c0,0.64-0.28,0.96-0.96,0.96l-14.84,0c-0.8,0-1.08-0.2-1.08-1.08l0-25.6c0-0.64,0.28-1,0.92-1l15.08,0c0.64,0,0.84,0.24,0.84,0.68l0,0.24l-0.28,2.4c-0.08,0.72-0.52,0.84-1.36,0.84l-10.04,0l0,7.24l9.24,0c0.76,0,1,0.32,1,0.88l0,2.28c0,0.68-0.28,0.96-0.96,0.96l-9.28,0l0,8l10.72,0c0.68,0,1,0.28,1,0.92l0,2.28z M125.2,53.62c0,0.32-0.24,0.48-0.6,0.48l-3.64,0c-0.72,0-1.2-0.2-1.56-0.8l-5.76-9.4l-3.08,0l0,9.2c0,0.6-0.24,1-0.92,1l-3.28,0c-0.68,0-0.96-0.32-0.96-1l0-25.52c0-0.88,0.2-1.16,1.08-1.16l5.92,0c3.48,0,7.16,0.52,9.28,2.96c1.28,1.48,1.92,3.44,1.92,5.6c0,3.68-1.96,6.56-5.16,7.96l6.56,10.12c0.12,0.2,0.2,0.4,0.2,0.56z M118.36,35.06c0-3.48-2.32-4.72-5.8-4.72l-2,0l0,9.68l2.48,0c3.2,0,5.32-1.72,5.32-4.96z M154.74,53.02c0,0.88-0.36,1.08-0.96,1.08l-2.68,0c-0.6,0-1.12-0.28-1.52-0.84l-13.04-17.84l-0.08,0l0,17.64c0,0.76-0.36,1.04-1.04,1.04l-2.88,0c-0.76,0-1.08-0.2-1.08-1l0-25.6c0-0.84,0.36-1.08,1.08-1.08l2.6,0c0.64,0,0.96,0.2,1.36,0.76l13.16,18.08l0.08,0l0-17.8c0-0.76,0.36-1.04,1.04-1.04l3,0c0.84,0,0.96,0.44,0.96,1.08l0,25.52z M186,41.82c0,8.24-3.88,12.76-11.68,12.76c-8.44,0-11.52-4.64-11.52-12.84l0-14.36c0-0.68,0.4-0.96,1.04-0.96l3.16,0c0.68,0,0.96,0.28,0.96,0.96l0,13.92c0,5.88,1.52,8.92,6.56,8.92c4.84,0,6.36-3.2,6.36-8.92l0-13.92c0-0.68,0.36-0.96,1-0.96l3.16,0c0.68,0,0.96,0.28,0.96,0.96l0,14.44z M213.9,53.62c0,0.32-0.24,0.48-0.6,0.48l-3.64,0c-0.72,0-1.2-0.2-1.56-0.8l-5.76-9.4l-3.08,0l0,9.2c0,0.6-0.24,1-0.92,1l-3.28,0c-0.68,0-0.96-0.32-0.96-1l0-25.52c0-0.88,0.2-1.16,1.08-1.16l5.92,0c3.48,0,7.16,0.52,9.28,2.96c1.28,1.48,1.92,3.44,1.92,5.6c0,3.68-1.96,6.56-5.16,7.96l6.56,10.12c0.12,0.2,0.2,0.4,0.2,0.56z M207.06,35.06c0-3.48-2.32-4.72-5.8-4.72l-2,0l0,9.68l2.48,0c3.2,0,5.32-1.72,5.32-4.96z M240.12,27.42l-0.28,2.32c-0.08,0.68-0.52,0.84-1.24,0.84l-7.24,0l0,22.6c0,0.76-0.16,0.92-0.84,0.92l-3.52,0c-0.72,0-0.84-0.16-0.84-0.88l0-22.64l-7.48,0c-0.68,0-0.92-0.28-0.92-0.96l0-2.36c0-0.6,0.28-0.84,0.88-0.84l20.24,0c1.04,0,1.32,0.32,1.24,1z M268.62,41.82c0,8.24-3.88,12.76-11.68,12.76c-8.44,0-11.52-4.64-11.52-12.84l0-14.36c0-0.68,0.4-0.96,1.04-0.96l3.16,0c0.68,0,0.96,0.28,0.96,0.96l0,13.92c0,5.88,1.52,8.92,6.56,8.92c4.84,0,6.36-3.2,6.36-8.92l0-13.92c0-0.68,0.36-0.96,1-0.96l3.16,0c0.68,0,0.96,0.28,0.96,0.96l0,14.44z M296.52,53.62c0,0.32-0.24,0.48-0.6,0.48l-3.64,0c-0.72,0-1.2-0.2-1.56-0.8l-5.76-9.4l-3.08,0l0,9.2c0,0.6-0.24,1-0.92,1l-3.28,0c-0.68,0-0.96-0.32-0.96-1l0-25.52c0-0.88,0.2-1.16,1.08-1.16l5.92,0c3.48,0,7.16,0.52,9.28,2.96c1.28,1.48,1.92,3.44,1.92,5.6c0,3.68-1.96,6.56-5.16,7.96l6.56,10.12c0.12,0.2,0.2,0.4,0.2,0.56z M289.68,35.06c0-3.48-2.32-4.72-5.8-4.72l-2,0l0,9.68l2.48,0c3.2,0,5.32-1.72,5.32-4.96z M319.66,53.14c0,0.64-0.28,0.96-0.96,0.96l-14.84,0c-0.8,0-1.08-0.2-1.08-1.08l0-25.6c0-0.64,0.28-1,0.92-1l15.08,0c0.64,0,0.84,0.24,0.84,0.68l0,0.24l-0.28,2.4c-0.08,0.72-0.52,0.84-1.36,0.84l-10.04,0l0,7.24l9.24,0c0.76,0,1,0.32,1,0.88l0,2.28c0,0.68-0.28,0.96-0.96,0.96l-9.28,0l0,8l10.72,0c0.68,0,1,0.28,1,0.92l0,2.28z"/><path fill="#" d=""/></svg>
